<svg xmlns="http://www.w3.org/2000/svg" width="194" height="147" viewBox="0 0 194 147" fill="none">
  <path opacity="0.2" d="M154.731 147C141.055 147 129.724 142.492 120.737 133.476C112.141 124.46 107.843 111.524 107.843 94.668C107.843 76.636 112.922 58.8 123.082 41.16C133.631 23.52 148.284 9.80001 167.039 0L180.52 20.58C160.201 34.692 148.089 52.528 144.181 74.088C147.698 72.52 151.801 71.736 156.489 71.736C167.43 71.736 176.417 75.264 183.45 82.32C190.483 89.376 194 98.392 194 109.368C194 120.344 190.288 129.36 182.864 136.416C175.44 143.472 166.062 147 154.731 147ZM46.8882 147C33.2125 147 21.8812 142.492 12.8943 133.476C4.29809 124.46 0 111.524 0 94.668C0 76.636 5.07956 58.8 15.2387 41.16C25.7885 23.52 40.4411 9.80001 59.1964 0L72.6767 20.58C52.3585 34.692 40.2457 52.528 36.3384 74.088C39.855 72.52 43.9577 71.736 48.6465 71.736C59.5871 71.736 68.574 75.264 75.6073 82.32C82.6405 89.376 86.1571 98.392 86.1571 109.368C86.1571 120.344 82.4451 129.36 75.0212 136.416C67.5972 143.472 58.2195 147 46.8882 147Z" fill="#7C99D5"/>
</svg>